<svg width="512" height="512" viewBox="0 0 512 512" xmlns="http://www.w3.org/2000/svg">
  <rect width="512" height="512" fill="#f0fdf4" />
  <text x="50%" y="50%" font-family="Geist, sans-serif" font-size="22" text-anchor="middle" fill="#16a34a">
    Fallback Image 3
  </text>
  <path d="M256 128c-70.7 0-128 57.3-128 128s57.3 128 128 128 128-57.3 128-128-57.3-128-128-128zm0 224c-52.9 0-96-43.1-96-96s43.1-96 96-96 96 43.1 96 96-43.1 96-96 96z" fill="#bbf7d0" />
  <path d="M224 256l32 32 64-64-16-16-48 48-16-16-16 16z" fill="#4ade80" />
</svg>